<?xml version="1.0"?><svg width="6000" height="6000" xmlns="http://www.w3.org/2000/svg">
 <title>Fish</title>
 <metadata id="metadata8288">image/svg+xml</metadata>

 <g>
  <title>Layer 1</title>
  <g id="svg_1">
   <path fill="black" d="m711.179382,1598.359131c8.85376,62.601929 82.104065,339.301636 114.736755,402.647339c26.873901,46.069946 59.013489,91.832886 91.646118,128.30481c51.828613,55.66748 106.036133,107.229004 167.462524,153.299072c53.747925,46.096191 114.621094,86.83374 174.127808,123.30542c63.345581,42.230713 138.675415,78.682373 211.619141,107.476074c55.667236,26.874023 114.694336,49.88208 179.959717,63.319092c72.943848,23.034912 152.079346,36.225098 230.781616,45.822998c55.66748,5.758789 705.666382,189.160889 519.343384,-289.862549l-188.144531,-483.707642l185.114746,179.55249c167.088135,132.156616 782.447754,252.657837 870.747559,206.588257l657.481201,742.350098c105.57666,28.793213 216.851318,59.846436 322.427979,92.479248c-23.035156,-9.5979 91.772461,32.752686 210.785645,74.983398c124.772461,46.069336 209.060059,82.161377 291.601563,122.472412c161.243652,78.702393 317.162109,167.369141 470.728027,269.106689c76.782715,49.908447 161.063965,109.368652 247.444336,170.794678c51.828613,40.311279 107.123047,86.474121 166.629883,138.302734l171.62793,164.962891c86.380859,82.541748 151.340332,127.594238 172.834961,297.445801c-32.632813,9.597656 -4.652832,2.053711 -35.365723,11.651855c-9.597656,3.838379 -22.968262,9.490723 -38.324707,13.330078c-76.783203,23.034668 -132.296875,36.625 -184.125488,55.820801c-36.47168,13.437012 -72.67041,26.554199 -109.14209,39.991211c-84.461426,38.390625 -167.076172,69.084473 -245.77832,107.476074c-30.713379,13.437012 -63.179688,27.460449 -95.812012,46.65625c-13.436523,7.678223 -33.219238,17.0625 -46.65625,26.660156c0,5.759277 -3.33252,5.325684 -3.33252,9.164551c0,0 -5.832031,4.239258 -5.832031,9.998047c-3.839355,3.839355 -4.165527,9.164551 -4.165527,9.164551c0,13.437012 9.817383,23.654785 17.495605,27.493652c55.667969,13.4375 115.12793,22.821777 170.79541,26.661133c88.299805,15.356445 170.735352,32.458984 253.276367,51.654785c84.461426,17.276367 167.076172,46.443359 245.77832,73.317383l-913.961914,225.782227c-13.437012,0.000488 -26.554199,4.166016 -39.991211,4.166016c-23.034668,0 -46.116211,-4.166016 -69.150879,-4.166016c-78.702148,-9.597168 -153.345703,-28.44043 -222.450195,-59.15332c-92.139648,-42.230469 -171.168457,-97.45166 -244.112305,-160.797363c-65.265625,-65.265137 -124.21875,-131.177246 -174.127441,-204.121094c-46.069824,-69.104004 -78.936035,-144.000488 -105.80957,-220.783691c-28.793945,-69.104492 -46.223145,-147.586914 -55.821045,-222.450195c-9.5979,-59.506836 -13.330322,-122.699219 -13.330322,-184.125488c-307.131104,-26.874023 -607.010742,-63.578857 -906.463623,-105.80957c-453.018311,-78.702148 -899.572021,-233.894287 -1318.038208,-456.564209c-115.174561,-59.506836 -231.088257,-118.860352 -342.42334,-184.125732c-72.943726,-40.310791 -155.411865,-92.125732 -234.114136,-151.632568c-69.104614,-55.66748 -133.783569,-109.802002 -193.290161,-161.630615c-65.265442,-59.506348 -128.53125,-128.424561 -189.95752,-203.287598c-109.415771,-132.450439 -92.075012,60.279053 -141.983887,-110.562744c-19.195679,-76.782959 -62.090088,-339.29834 -142.119202,-588.44751c-8.783813,-27.345947 -5.83197,-55.680908 -5.83197,-88.313599c0,-36.471924 5.325378,-78.502563 9.164673,-114.974365c13.436707,-74.862915 33.112427,-144.180908 59.986511,-213.285522c19.195374,-40.310913 61.817017,-47.033691 56.05835,-14.400879zm4599.988586,2260.589355c-86.380859,0 -104.939453,38.313721 -104.939453,126.613525c0,90.219727 9.804688,161.630371 96.185059,161.630371c86.380859,0 113.694336,-71.410156 113.693848,-161.630371c0,-88.299805 -18.558594,-126.613281 -104.939453,-126.613525z" id="path16"/>
   <path fill="black" d="m1870.521362,4349.952637c454.634644,285.692383 959.873169,480.655273 1492.964478,574.636719l371.366455,41.346191l379.260986,33.891113l401.13623,7.631836c-103.667969,-68.256836 -197.411621,-147.751953 -279.313965,-238.431152l-79.76416,-98.298828c-66.551758,-90.239746 -119.5625,-183.933105 -153.11084,-286.670898c-15.403564,-65.73291 -29.05249,-125.654297 -40.67334,-189.358398l-18.799561,-148.405029l-397.900146,-53.627686l-311.609863,-49.239014l-210.133545,-38.656006c-120.224609,-26.482666 -238.256592,-62.504395 -358.097412,-102.418701l-381.724854,-149.182617l-295.489136,-142.875977l-300.751831,-160.309326l-281.398804,-165.51709l-220.162842,-158.004639l-278.27124,-274.887939l-204.643738,-297.746582l10.248535,111.673584c45.382751,360.404297 169.820007,709.627197 358.61969,1024.204102c128.223755,216.826172 293.89209,400.157471 487.575806,543.962646l103.392944,77.850586l207.280151,138.433105z" id="path20"/>
   <path fill="black" d="m769.592529,1909.409302c-11.319336,-98.307495 -26.773743,-193.780273 -49.256165,-288.776367l-387.457092,-1502.932724l-5.49353,-25.952927c-2.188354,-3.608856 -2.299042,-8.617989 -4.487427,-12.226845c-1.458893,-2.405785 -6.454346,-5.8172 -9.935638,-4.317963c-6.343628,-0.807938 -9.714233,5.700546 -13.084839,12.209045c-3.370453,6.508369 -6.741028,13.016853 -4.441986,21.63485l-35.253845,694.830948l-9.874969,157.477112c-7.425217,45.67572 0.200348,82.35968 -9.915802,122.767395c-10.272385,41.031982 -18.294891,64.678467 -44.95462,98.869141c-25.533691,32.74646 -53.226898,60.052979 -73.16349,80.269897l-56.041893,40.316772l-41.774822,17.990356c44.672634,49.535522 85.753506,95.561157 128.348385,146.497192c55.50383,62.57019 102.688934,143.519287 166.44603,216.563599c63.75708,73.043945 96.188477,71.812988 141.272186,131.713745c45.083771,59.900757 91.539429,120.863892 123.182678,185.113037c26.162109,54.287598 30.835938,48.051758 47.271362,92.048828c11.329163,35.576416 91.825623,243.13623 109.528564,185.448975c14.6745,-67.508057 25.082886,-137.224609 29.932312,-204.041504c2.31897,-54.096313 1.830933,-107.994873 -1.408936,-159.191528c2.0224,-3.905273 0.563538,-6.311035 0.563538,-6.311035z" id="path22"/>
   <path fill="black" d="m2524.253906,4661.200684c-86.380615,-36.472168 -168.922119,-76.783203 -247.624512,-122.852539c-9.5979,3.838867 -136.839355,-127.474121 -146.437012,-127.474121c-55.667725,0 -58.810059,4.915039 -112.558105,-4.682617c-161.244019,-13.437012 -261.208374,86.086426 -418.613281,57.293457c170.841797,115.173828 332.085815,239.946289 479.892578,374.315918c128.611328,109.416016 243.785645,230.348145 358.959717,347.442383c32.632568,0 59.506592,-9.598145 82.541504,-17.276367c101.737305,-46.069336 193.876709,-95.978516 286.015869,-151.645996c88.300293,-49.908691 165.083252,-109.415527 230.348633,-178.52002c-49.908936,-19.195801 -101.737305,-36.47168 -151.64624,-51.828613c-124.771973,-30.712891 -243.7854,-72.943359 -360.87915,-124.771484z" id="path24"/>
  </g>
 </g>
</svg>